<?xml version="1.0" encoding="windows-1252"?>
<!-- Generator: Adobe Illustrator 18.0.0, SVG Export Plug-In . SVG Version: 6.00 Build 0)  -->
<!DOCTYPE svg PUBLIC "-//W3C//DTD SVG 1.1//EN" "http://www.w3.org/Graphics/SVG/1.1/DTD/svg11.dtd">
<svg version="1.1" id="Capa_1" xmlns="http://www.w3.org/2000/svg" xmlns:xlink="http://www.w3.org/1999/xlink" x="0px" y="0px" viewBox="0 0 51.349 51.349" style="enable-background:new 0 0 51.349 51.349;" xml:space="preserve">
<g>
	<path d="M50.849,16.032h-9.552V6.391c0-0.276-0.224-0.5-0.5-0.5h-10.14c-0.276,0-0.5,0.224-0.5,0.5v9.641h-8.964V6.391   c0-0.276-0.224-0.5-0.5-0.5h-10.14c-0.276,0-0.5,0.224-0.5,0.5v9.641H0.5c-0.276,0-0.5,0.224-0.5,0.5v10.14   c0,0.276,0.224,0.5,0.5,0.5h10.14c0.276,0,0.5-0.224,0.5-0.5v-9.64h8.964v9.64c0,0.276,0.224,0.5,0.5,0.5h10.14   c0.276,0,0.5-0.224,0.5-0.5v-9.64h8.964v9.64c0,0.276,0.224,0.5,0.5,0.5h10.14c0.276,0,0.5-0.224,0.5-0.5v-10.14   C51.349,16.255,51.125,16.032,50.849,16.032z"/>
	<polygon points="0.5,31.981 5.456,31.981 5.456,45.458 9.091,45.458 9.091,31.981 14.046,31.981 14.046,28.924 0.5,28.924  "/>
	<path d="M45.346,28.924h-3.982l-3.358,5.279l-3.242-5.279H30.55l5.326,7.874l-5.601,8.38l-6.078-16.253h-3.728l-6.276,16.534h3.681   l1.297-3.682h6.182l1.251,3.682h3.482h0.292h3.806l3.682-5.719l3.612,5.719h4.331l-5.766-8.637L45.346,28.924z M20.121,39.066   l2.153-6.066h0.046l2.084,6.066H20.121z"/>
	<rect x="47.277" y="28.924" width="3.635" height="16.534"/>
</g>
<g>
</g>
<g>
</g>
<g>
</g>
<g>
</g>
<g>
</g>
<g>
</g>
<g>
</g>
<g>
</g>
<g>
</g>
<g>
</g>
<g>
</g>
<g>
</g>
<g>
</g>
<g>
</g>
<g>
</g>
</svg>